<svg id="Layer_1" data-name="Layer 1" xmlns="http://www.w3.org/2000/svg" viewBox="0 0 100 100"><title>Artboard 1</title><path d="M36,50a5.32,5.32,0,0,1,5.4-5.67c3.16,0,5.32,2.34,5.32,5.67s-2.07,5.67-5.41,5.67C38.16,55.67,36,53.24,36,50Z"/><path d="M54.64,50A5.32,5.32,0,0,1,60,44.33c3.16,0,5.32,2.34,5.32,5.67S63.29,55.67,60,55.67C56.8,55.67,54.64,53.24,54.64,50Z"/><path d="M73.28,50a5.32,5.32,0,0,1,5.41-5.67C81.84,44.33,84,46.67,84,50s-2.07,5.67-5.4,5.67C75.44,55.67,73.28,53.24,73.28,50Z"/></svg>